<svg width="279" height="320" xmlns="http://www.w3.org/2000/svg" xmlns:xlink="http://www.w3.org/1999/xlink" overflow="hidden"><defs><clipPath id="clip0"><rect x="354" y="208" width="279" height="320"/></clipPath></defs><g clip-path="url(#clip0)" transform="translate(-354 -208)"><path d="M0 71.5C-1.82058e-14 32.0116 32.0116 0 71.5 0 110.988-1.82058e-14 143 32.0116 143 71.5 143 110.988 110.988 143 71.5 143 32.0116 143-2.73087e-14 110.988 0 71.5Z" stroke="#000000" stroke-width="2" stroke-miterlimit="8" fill="none" fill-rule="evenodd" transform="matrix(-1 0 0 1 532 302)"/><path d="M0 33C-8.40268e-15 14.7746 14.7746 0 33 0 51.2254-8.40268e-15 66 14.7746 66 33 66 51.2254 51.2254 66 33 66 14.7746 66-1.2604e-14 51.2254 0 33Z" stroke="#000000" stroke-width="3" stroke-miterlimit="8" fill="none" fill-rule="evenodd" transform="matrix(-1 0 0 1 493.5 340.5)"/><path d="M0 71.5C-1.82058e-14 32.0116 32.0116 0 71.5 0 110.988-1.82058e-14 143 32.0116 143 71.5 143 110.988 110.988 143 71.5 143 32.0116 143-2.73087e-14 110.988 0 71.5Z" stroke="#000000" stroke-width="2" stroke-miterlimit="8" stroke-dasharray="8 6" fill="none" fill-rule="evenodd" transform="matrix(-1 0 0 1 596 302)"/><path d="M0 33C-8.40268e-15 14.7746 14.7746 0 33 0 51.2254-8.40268e-15 66 14.7746 66 33 66 51.2254 51.2254 66 33 66 14.7746 66-1.2604e-14 51.2254 0 33Z" stroke="#000000" stroke-width="3" stroke-miterlimit="8" stroke-dasharray="12 9" fill="none" fill-rule="evenodd" transform="matrix(-1 0 0 1 557.5 340.5)"/><path d="M0 71.5C-1.82058e-14 32.0116 32.0116 0 71.5 0 110.988-1.82058e-14 143 32.0116 143 71.5 143 110.988 110.988 143 71.5 143 32.0116 143-2.73087e-14 110.988 0 71.5Z" stroke="#000000" stroke-width="2" stroke-miterlimit="8" stroke-dasharray="8 6" fill="none" fill-rule="evenodd" transform="matrix(-1 0 0 1 564 340)"/><path d="M0 33C-8.40268e-15 14.7746 14.7746 0 33 0 51.2254-8.40268e-15 66 14.7746 66 33 66 51.2254 51.2254 66 33 66 14.7746 66-1.2604e-14 51.2254 0 33Z" stroke="#000000" stroke-width="3" stroke-miterlimit="8" stroke-dasharray="12 9" fill="none" fill-rule="evenodd" transform="matrix(-1 0 0 1 525.5 379.5)"/><path d="M358.5 379.5 630.5 379.5" stroke="#000000" stroke-width="3" stroke-miterlimit="8" stroke-dasharray="3 3" fill="none" fill-rule="evenodd"/><path d="M354.5 221.5 626.5 221.5" stroke="#000000" stroke-width="3" stroke-miterlimit="8" stroke-dasharray="3 3" fill="none" fill-rule="evenodd"/><path d="M630.999 380.413C630.739 446.134 569.639 499.227 494.528 498.999 419.602 498.772 359 445.561 359 380L495 380Z" stroke="#000000" stroke-width="2" stroke-miterlimit="8" fill="none" fill-rule="evenodd"/><path d="M495 221.481 496.943 372.1 493.944 372.138 492 221.519ZM499.924 370.56 495.54 379.618 490.925 370.677Z"/><path d="M598 226 598 375.147 595 375.147 595 226ZM592 227.5 596.5 218.5 601 227.5ZM601 373.646 596.5 382.646 592 373.646Z"/><text font-family="Cambria Math,Cambria Math_MSFontService,sans-serif" font-weight="400" font-size="24" transform="translate(487.858 521)">𝜋<tspan font-size="24" x="122.451" y="-207">𝐿</tspan></text><path d="M474 240.5 474 249.5 471 249.5 471 240.5ZM474 252.5 474 261.5 471 261.5 471 252.5ZM474 264.5 474 273.5 471 273.5 471 264.5ZM474 276.5 474 283.758 471 283.758 471 276.5ZM477 282.258 472.5 291.258 468 282.258Z"/><path d="M1.5-3.10257e-06 1.50009 43.258-1.49991 43.258-1.5 3.10257e-06ZM4.50009 41.758 0.000104987 50.758-4.49991 41.758Z" transform="matrix(1 0 0 -1 508.5 286.258)"/></g></svg>